<?xml version="1.0" encoding="UTF-8"?>
<!-- Created with Inkscape (http://www.inkscape.org/) -->
<svg width="100" fill="white" height="100" version="1.1" viewBox="0 0 26.458 26.458" xml:space="preserve" xmlns="http://www.w3.org/2000/svg"><g transform="translate(-106.29 -124.35)"><path d="m106.29 137.58v-9.525h26.458v19.05h-26.458zm25.4 7.8062s-0.73737-1.2465-3.8421-3.7141l-3.8421-3.0537-1.462 1.1909c-2.3627 1.9246-3.7862 1.8968-6.179-0.12092l-1.2942-1.0913-3.8611 3.0688c-3.1083 2.4705-3.8611 3.7248-3.8611 3.7248v0.65597h24.342zm-18.132-6.8933c0.43212-0.34119 0.72978-0.66393 0.66146-0.7172-0.0683-0.0533-1.4934-1.287-3.1669-2.7416s-3.7042-3.3527-3.7042-3.3527v11.735l2.712-2.1515c1.4916-1.1833 3.0655-2.4307 3.4977-2.7719zm18.075-3.5963-0.075-2.9773-6.8016 6.0014 0.75497 0.59364c0.41524 0.3265 1.9456 1.5365 3.4008 2.6889l2.6458 2.0953 0.075-2.7123zm-10.594 4.734c0.4638-0.32742 3.041-2.5003 5.7271-4.8286 4.0617-3.5207 4.904-4.9609 4.904-4.9609l0.0201-0.7276h-24.342l0.0311 0.96535s1.0303 1.2682 5.0621 4.7968c2.8013 2.4517 5.3876 4.6585 5.7474 4.904 0.89363 0.60976 1.8456 0.56001 2.8498-0.14893z" stroke-width=".26458"/></g></svg>
