<?xml version="1.0" encoding="UTF-8"?>
<!-- Created with Inkscape (http://www.inkscape.org/) -->
<svg width="100" height="100" fill="white" version="1.1" viewBox="0 0 26.458 26.458" xml:space="preserve" xmlns="http://www.w3.org/2000/svg"><g transform="matrix(1.1376 0 0 1.1376 -124.56 -146.61)"><path d="m111.75 151.28c-0.31431-0.50858-0.71304-4.4285-0.55658-5.4719 0.22688-1.513 1.3348-3.159 3.9581-5.8802 1.7919-1.8588 2.2448-2.491 2.3151-3.232l0.0875-0.92115h1.4552c1.3908 0 1.4589 0.0322 1.5389 0.7276 0.0752 0.65389 0.18739 0.72761 1.1069 0.72761 0.91952 0 1.0317-0.0737 1.1069-0.72761 0.08-0.6954 0.14811-0.7276 1.5389-0.7276h1.4552l0.087 0.91441c0.0699 0.73486 0.54777 1.3964 2.4337 3.3692 3.7698 3.9433 4.331 5.3821 3.6442 9.3425l-0.34412 1.9844-1.675 0.0793c-1.5009 0.0711-1.6897 0.023-1.8168-0.46302-0.13795-0.52755-0.31341-0.54235-6.4301-0.54235-6.0658 0-6.2932 0.0187-6.4267 0.52917-0.11909 0.45542-0.3609 0.52917-1.735 0.52917-0.87817 0-1.6627-0.1069-1.7435-0.23754zm2.5735-1.35c0.1341-0.5128 0.3609-0.52917 7.3317-0.52917 7.0334 0 7.1964 0.0121 7.3354 0.54335 0.1115 0.42635 0.31982 0.52606 0.96742 0.46302 0.82105-0.0799 0.82655-0.0908 1.0609-2.097 0.12959-1.1092 0.16291-2.3064 0.074-2.6604-0.25599-1.02-1.4551-2.6427-3.9489-5.344-1.3609-1.4741-2.3139-2.7327-2.3139-3.0557 0-0.88388-1.0033-0.72225-1.1069 0.17832-0.083 0.72164-0.10001 0.72761-2.0681 0.72761-1.9681 0-1.9851-6e-3 -2.0681-0.72761-0.10376-0.90173-1.1069-1.062-1.1069-0.1768 0 0.32829-0.98869 1.6159-2.4474 3.1874-1.3461 1.4501-2.7825 3.1966-3.1922 3.881-0.70387 1.1761-0.73634 1.3659-0.59133 3.4589 0.0844 1.218 0.21819 2.3193 0.29734 2.4474 0.0792 0.12808 0.4802 0.23287 0.89121 0.23287 0.52476 0 0.78848-0.15757 0.88565-0.52916zm3.0983-4.7625c0-0.44098 0.17639-0.52917 1.0583-0.52917 0.88195 0 1.0583 0.0882 1.0583 0.52917s-0.17639 0.52916-1.0583 0.52916c-0.88194 0-1.0583-0.0882-1.0583-0.52916zm3.175 0c0-0.44098 0.17639-0.52917 1.0583-0.52917 0.88195 0 1.0583 0.0882 1.0583 0.52917s-0.17639 0.52916-1.0583 0.52916c-0.88194 0-1.0583-0.0882-1.0583-0.52916zm3.175 0c0-0.44098 0.17639-0.52917 1.0583-0.52917 0.88195 0 1.0583 0.0882 1.0583 0.52917s-0.17639 0.52916-1.0583 0.52916c-0.88194 0-1.0583-0.0882-1.0583-0.52916zm-6.35-2.1167c0-0.44097 0.17639-0.52917 1.0583-0.52917 0.88195 0 1.0583 0.0882 1.0583 0.52917s-0.17639 0.52917-1.0583 0.52917c-0.88194 0-1.0583-0.0882-1.0583-0.52917zm3.175 0c0-0.44097 0.17639-0.52917 1.0583-0.52917 0.88195 0 1.0583 0.0882 1.0583 0.52917s-0.17639 0.52917-1.0583 0.52917c-0.88194 0-1.0583-0.0882-1.0583-0.52917zm3.175 0c0-0.44097 0.17639-0.52917 1.0583-0.52917 0.88195 0 1.0583 0.0882 1.0583 0.52917s-0.17639 0.52917-1.0583 0.52917c-0.88194 0-1.0583-0.0882-1.0583-0.52917zm-6.35-2.1167c0-0.44097 0.17639-0.52916 1.0583-0.52916 0.88195 0 1.0583 0.0882 1.0583 0.52916 0 0.44098-0.17639 0.52917-1.0583 0.52917-0.88194 0-1.0583-0.0882-1.0583-0.52917zm3.175 0c0-0.44097 0.17639-0.52916 1.0583-0.52916 0.88195 0 1.0583 0.0882 1.0583 0.52916 0 0.44098-0.17639 0.52917-1.0583 0.52917-0.88194 0-1.0583-0.0882-1.0583-0.52917zm3.175 0c0-0.44097 0.17639-0.52916 1.0583-0.52916 0.88195 0 1.0583 0.0882 1.0583 0.52916 0 0.44098-0.17639 0.52917-1.0583 0.52917-0.88194 0-1.0583-0.0882-1.0583-0.52917zm-13.305-2.0544c-0.46878-0.51799-0.96593-2.389-0.9759-3.6728-0.0225-2.897 8.6982-5.6953 16.553-5.3116 3.8646 0.18875 5.9063 0.92787 6.3778 2.3089 0.17369 0.50865 0.32252 1.5314 0.33073 2.2729 0.0216 1.9546-0.44395 2.2984-2.796 2.0644-2.558-0.25441-2.8504-0.41442-3.8456-2.1039l-0.88416-1.5011-2.6458 0.15146c-2.7238 0.15593-5.6744 0.7806-5.9736 1.2647-0.0932 0.15085-0.31185 0.9103-0.48582 1.6877-0.17396 0.77736-0.45865 1.523-0.63263 1.6569-0.4393 0.33815-3.8155 1.6495-4.2468 1.6495-0.1942 0-0.54324-0.21011-0.77565-0.46693zm2.4881-1.165c0.78339-0.31549 1.5434-0.67748 1.6889-0.80442 0.14552-0.12694 0.44655-0.95933 0.66895-1.8498 0.38027-1.5224 0.46702-1.6414 1.4552-1.9955 2.4641-0.88302 8.2018-1.4715 9.0112-0.92421 0.15812 0.10691 0.60999 0.74983 1.0042 1.4287 0.9541 1.6432 1.0703 1.7146 3.1401 1.9296l1.7859 0.18549v-1.1945c0-0.65696-0.10979-1.4832-0.24398-1.8362-0.3788-0.99634-2.1089-1.5486-5.3507-1.7079-5.8325-0.28665-12.774 1.2806-15.006 3.3879-0.54895 0.51835-0.60377 0.74544-0.45348 1.8783 0.19685 1.484 0.38908 2.076 0.67406 2.076 0.11054 0 0.84195-0.25813 1.6253-0.57362zm15.315 0.76034c-0.80306-0.40627-0.90212-1.1607-0.13229-1.0074 0.29104 0.0579 1.1763 0.12408 1.9672 0.14701 1.4499 0.042 2.0561 0.4898 1.3062 0.96484-0.53741 0.34043-2.3831 0.27908-3.1411-0.10441zm-18.665-6.2917c-0.45739-0.74006 2.335-2.6008 4.0534-2.701 1.4906-0.0869 1.2723 0.59886-0.33715 1.0592-0.72761 0.20814-1.7624 0.72663-2.2996 1.1522-1.0916 0.86485-1.1684 0.89137-1.4167 0.48961z" stroke-width=".26458"/></g></svg>
